<?xml version="1.0" encoding="utf-8"?>
<!-- Svg Vector Icons : http://www.onlinewebfonts.com/icon -->
<!DOCTYPE svg PUBLIC "-//W3C//DTD SVG 1.1//EN" "http://www.w3.org/Graphics/SVG/1.1/DTD/svg11.dtd">
<svg version="1.1" xmlns="http://www.w3.org/2000/svg" xmlns:xlink="http://www.w3.org/1999/xlink" x="0px" y="0px" viewBox="0 0 1000 1000" enable-background="new 0 0 1000 1000" xml:space="preserve">
<metadata> Svg Vector Icons : http://www.onlinewebfonts.com/icon </metadata>
<g><g transform="translate(0.000000,511.000000) scale(0.100000,-0.100000)"><path d="M2534.3,5000.4c-119.8-24-235.6-107.8-309.5-227.6l-59.9-95.8l-6-4271c-2-2348.1-10-4269-20-4269c-59.9,0-433.3-65.9-565.1-99.8c-686.9-175.7-720.8-499.2-71.9-686.9c878.6-255.6,2334.2-145.8,2681.6,199.7c83.9,83.9,87.9,159.7,18,245.6c-73.9,85.8-155.7,131.8-361.4,199.7c-139.8,47.9-603,141.8-690.9,141.8c-8,0-18,1916.9-20,4259c-6,4049.4-8,4261-41.9,4328.9C2983.6,4934.5,2763.9,5044.4,2534.3,5000.4z"/><path d="M6971,4593.1c-149.8-31.9-233.6-75.9-752.8-377.4c-471.2-275.6-583-315.5-848.6-315.5c-247.6-2-315.5,24-906.5,323.5c-473.2,241.6-477.2,243.6-593,235.6c-143.7-10-263.6-85.9-325.5-205.7c-41.9-77.9-41.9-101.8-47.9-1637.3c-4-1178.1,0-1579.4,18-1645.3c16-53.9,53.9-117.8,97.9-159.7C3718.4,707.5,4954.4,82.5,5140,38.6c173.7-39.9,409.3-28,577,30c63.9,24,321.5,159.7,569.1,305.5c593,345.4,587,343.4,910.5,343.4l259.6,2l499.2-177.7C8231,443.9,8488.6,360,8530.5,354c161.7-20,365.4,121.8,411.3,289.5c14,49.9,22,601,22,1645.3v1567.4l-51.9,103.8c-36,73.9-75.9,117.8-133.8,153.8c-107.8,61.9-1247.9,459.2-1401.7,487.2C7226.6,4629,7128.8,4627,6971,4593.1z"/></g></g>
</svg>